<svg class="logo-container__logo" viewBox="0 0 300 300" fill="none" xmlns="http://www.w3.org/2000/svg">
    <style>
        path { fill: #333; }
        @media (prefers-color-scheme: dark) {
            path { fill: #828282; }
        }
  </style>
    <path fill-rule="evenodd" clip-rule="evenodd" d="M150 150h-37.5C91.79 150 75 166.789 75 187.5c0 20.71 16.79 37.5 37.5 37.5H150v-75zm-37.5-75C50.368 75 0 125.368 0 187.5S50.368 300 112.5 300H150V75h-37.5zM150 150h37.5c20.711 0 37.5-16.789 37.5-37.5 0-20.71-16.789-37.5-37.5-37.5H150v75zm37.5 75c62.132 0 112.5-50.368 112.5-112.5S249.632 0 187.5 0H150v225h37.5z" fill="currentColor"/>
</svg>